<svg width="231" height="40" viewBox="0 0 231 40" fill="none" xmlns="http://www.w3.org/2000/svg">
<path d="M36.5707 29.7494V15.3142C36.5707 14.3205 37.0589 13.719 38.0352 13.5098C39.0638 13.2832 40.3713 13.1698 41.9578 13.1698C46.4731 13.1698 48.7308 14.983 48.7308 18.6092C48.7308 19.847 48.4344 20.893 47.8417 21.7473C47.2489 22.6015 46.447 23.203 45.4358 23.5517L48.7569 28.5987C49.0708 29.0694 49.2015 29.5489 49.1492 30.037C49.0969 30.5077 48.8703 30.8651 48.4693 31.1092C47.5453 31.6322 46.7521 31.3446 46.0896 30.2462L42.3762 24.127C42.1495 24.1618 41.7747 24.1793 41.2517 24.1793C40.6938 24.1793 40.1795 24.1444 39.7088 24.0747V29.7494C39.7088 30.2201 39.5693 30.6036 39.2904 30.9C39.0115 31.1964 38.6279 31.3446 38.1398 31.3446C37.6342 31.3446 37.2419 31.1964 36.963 30.9C36.7015 30.6036 36.5707 30.2201 36.5707 29.7494ZM41.4871 21.8257C42.8295 21.8257 43.8232 21.5904 44.4682 21.1196C45.1133 20.6315 45.4358 19.8557 45.4358 18.7922C45.4358 16.9094 44.1893 15.968 41.6963 15.968C41.243 15.968 40.5805 16.0203 39.7088 16.1249V21.7211C40.2493 21.7908 40.842 21.8257 41.4871 21.8257Z" fill="#22ABE2"/>
<path d="M31.3051 30.1154L29.8406 26.2451H23.1199L21.7601 29.9324C21.3243 31.1876 20.6095 31.6147 19.6157 31.2138C18.8487 30.8825 18.6743 30.1677 19.0927 29.0694L24.9766 14.3204C25.3079 13.4662 25.8396 13.0391 26.5718 13.0391C27.2692 13.0391 27.7747 13.4139 28.0886 14.1635L34.1555 29.0433C34.3473 29.4268 34.3821 29.8452 34.2601 30.2985C34.1555 30.7518 33.8853 31.0569 33.4494 31.2138C32.9613 31.3881 32.5254 31.3794 32.1419 31.1876C31.7758 30.9784 31.4969 30.621 31.3051 30.1154ZM26.4149 17.197L23.9568 23.787H28.9515L26.4149 17.197Z" fill="#22ABE2"/>
<path d="M3.08578 14.3205L8.42051 22.741L13.6506 14.2943C14.0691 13.6318 14.5834 13.3006 15.1935 13.3006C15.6642 13.3006 16.0216 13.4488 16.2657 13.7451C16.5272 14.0415 16.658 14.4338 16.658 14.9219V29.7493C16.658 30.2201 16.5185 30.6036 16.2396 30.9C15.9781 31.1964 15.5945 31.3445 15.0889 31.3445C14.6008 31.3445 14.2172 31.1964 13.9383 30.9C13.6594 30.6036 13.5199 30.2201 13.5199 29.7493V19.106L9.70189 25.2776C9.31835 25.9052 8.83892 26.219 8.26361 26.219C7.67086 26.219 7.18271 25.9139 6.79917 25.3037L2.92887 19.2368V29.7493C2.92887 30.8128 2.44073 31.3445 1.46444 31.3445C0.488146 31.3445 0 30.8128 0 29.7493V14.9481C0 14.3902 0.130753 13.9805 0.39226 13.719C0.6712 13.4401 1.02859 13.3006 1.46444 13.3006C2.12692 13.3006 2.66737 13.6405 3.08578 14.3205Z" fill="#22ABE2"/>
<path d="M224.107 14.8357C222.817 14.8357 221.84 15.1234 221.178 15.6987C220.533 16.2566 220.21 16.9801 220.21 17.8692C220.21 18.7758 220.55 19.508 221.23 20.0659C221.91 20.6237 222.729 21.0596 223.688 21.3734C224.665 21.6872 225.632 22.0272 226.591 22.3933C227.567 22.7419 228.395 23.2911 229.075 24.0408C229.755 24.7904 230.095 25.758 230.095 26.9435C230.095 28.4776 229.555 29.7067 228.474 30.6307C227.393 31.5373 225.867 31.9906 223.897 31.9906C222.102 31.9906 220.541 31.6419 219.216 30.9445C218.17 30.3692 217.804 29.8288 218.118 29.3232C218.153 29.2534 218.197 29.2011 218.249 29.1663C218.301 29.114 218.354 29.0878 218.406 29.0878C218.476 29.0704 218.537 29.0617 218.589 29.0617C218.641 29.0442 218.702 29.0442 218.772 29.0617C218.859 29.0791 218.929 29.1053 218.981 29.1401C219.033 29.1576 219.103 29.1924 219.19 29.2447C219.277 29.2796 219.347 29.3145 219.4 29.3493C219.469 29.3668 219.548 29.4016 219.635 29.4539C219.739 29.5062 219.818 29.5498 219.87 29.5847C221.091 30.2472 222.459 30.5784 223.976 30.5784C225.371 30.5784 226.469 30.2908 227.271 29.7154C228.073 29.1227 228.474 28.2772 228.474 27.1788C228.474 26.3769 228.23 25.7057 227.742 25.1652C227.253 24.6073 226.643 24.1977 225.911 23.9361C225.179 23.6572 224.386 23.3521 223.531 23.0209C222.677 22.6896 221.884 22.3584 221.152 22.0272C220.419 21.6785 219.809 21.1555 219.321 20.4581C218.833 19.7608 218.589 18.9152 218.589 17.9215C218.589 16.614 219.06 15.5418 220.001 14.705C220.96 13.8507 222.346 13.4236 224.159 13.4236C225.85 13.4236 227.314 13.8071 228.552 14.5742C229.372 15.0798 229.633 15.5505 229.337 15.9863C229.128 16.3002 228.613 16.2391 227.794 15.8033C227.742 15.7859 227.707 15.7684 227.689 15.751C226.521 15.1408 225.327 14.8357 224.107 14.8357Z" fill="white"/>
<path d="M213.456 28.8786V14.5219C213.456 13.964 213.7 13.6851 214.189 13.6851C214.677 13.6851 214.921 13.964 214.921 14.5219V30.8922C214.921 31.1363 214.851 31.3368 214.712 31.4937C214.572 31.6506 214.389 31.7291 214.162 31.7291C213.883 31.7291 213.622 31.5896 213.378 31.3106L202.395 16.5617V30.8922C202.395 31.4501 202.151 31.7291 201.662 31.7291C201.174 31.7291 200.93 31.4501 200.93 30.8922V14.5742C200.93 14.3302 200.991 14.1209 201.113 13.9466C201.253 13.7723 201.453 13.6851 201.715 13.6851C202.046 13.6851 202.334 13.8507 202.578 14.182L213.456 28.8786Z" fill="white"/>
<path d="M182.78 29.4016C181.316 27.6583 180.583 25.4267 180.583 22.7071C180.583 19.9874 181.316 17.7646 182.78 16.0387C184.262 14.2953 186.345 13.4236 189.03 13.4236C191.715 13.4236 193.789 14.2953 195.254 16.0387C196.736 17.7646 197.477 19.9874 197.477 22.7071C197.477 25.4267 196.736 27.6583 195.254 29.4016C193.789 31.1276 191.715 31.9906 189.03 31.9906C186.345 31.9906 184.262 31.1276 182.78 29.4016ZM184.009 17.0585C182.806 18.523 182.205 20.4058 182.205 22.7071C182.205 25.0083 182.806 26.8999 184.009 28.3818C185.229 29.8462 186.903 30.5784 189.03 30.5784C191.157 30.5784 192.822 29.8462 194.025 28.3818C195.245 26.8999 195.855 25.0083 195.855 22.7071C195.855 20.4058 195.245 18.523 194.025 17.0585C192.822 15.5767 191.157 14.8357 189.03 14.8357C186.903 14.8357 185.229 15.5767 184.009 17.0585Z" fill="white"/>
<path d="M175.571 30.8922V14.5219C175.571 14.2779 175.641 14.0774 175.781 13.9205C175.92 13.7636 176.112 13.6851 176.356 13.6851C176.6 13.6851 176.792 13.7636 176.931 13.9205C177.071 14.0774 177.14 14.2779 177.14 14.5219V30.8922C177.14 31.1363 177.071 31.3368 176.931 31.4937C176.792 31.6506 176.6 31.7291 176.356 31.7291C176.112 31.7291 175.92 31.6506 175.781 31.4937C175.641 31.3368 175.571 31.1363 175.571 30.8922Z" fill="white"/>
<path d="M172.461 15.0972H166.577V30.8922C166.577 31.1363 166.508 31.3368 166.368 31.4937C166.229 31.6506 166.037 31.7291 165.793 31.7291C165.549 31.7291 165.357 31.6506 165.218 31.4937C165.078 31.3368 165.008 31.1363 165.008 30.8922V15.0972H159.124C158.915 15.0972 158.741 15.0362 158.601 14.9142C158.479 14.7747 158.418 14.6004 158.418 14.3912C158.418 14.1994 158.479 14.0338 158.601 13.8943C158.741 13.7548 158.915 13.6851 159.124 13.6851H172.461C172.671 13.6851 172.836 13.7548 172.958 13.8943C173.098 14.0338 173.167 14.1994 173.167 14.3912C173.167 14.6004 173.098 14.7747 172.958 14.9142C172.836 15.0362 172.671 15.0972 172.461 15.0972Z" fill="white"/>
<path d="M149.372 30.5784C152.754 30.5784 154.445 28.53 154.445 24.433V14.5219C154.445 14.2779 154.515 14.0774 154.654 13.9205C154.794 13.7636 154.986 13.6851 155.23 13.6851C155.474 13.6851 155.666 13.7636 155.805 13.9205C155.945 14.0774 156.014 14.2779 156.014 14.5219V24.5115C156.014 25.5575 155.901 26.5164 155.674 27.3881C155.448 28.2423 155.082 29.0268 154.576 29.7416C154.088 30.4564 153.39 31.0143 152.484 31.4153C151.595 31.7988 150.54 31.9906 149.32 31.9906C146.966 31.9906 145.275 31.3019 144.246 29.9247C143.218 28.5474 142.704 26.743 142.704 24.5115V14.5219C142.704 14.2779 142.773 14.0774 142.913 13.9205C143.052 13.7636 143.244 13.6851 143.488 13.6851C143.732 13.6851 143.924 13.7636 144.063 13.9205C144.203 14.0774 144.273 14.2779 144.273 14.5219V24.433C144.273 28.53 145.972 30.5784 149.372 30.5784Z" fill="white"/>
<path d="M141.029 31.7291H131.511C131.005 31.7291 130.752 31.4501 130.752 30.8922V14.5219C130.752 14.2779 130.822 14.0774 130.961 13.9205C131.101 13.7636 131.293 13.6851 131.537 13.6851C131.781 13.6851 131.973 13.7636 132.112 13.9205C132.252 14.0774 132.321 14.2779 132.321 14.5219V30.3169H141.029C141.239 30.3169 141.404 30.3867 141.526 30.5261C141.666 30.6656 141.736 30.8312 141.736 31.023C141.736 31.2322 141.666 31.4065 141.526 31.546C141.404 31.668 141.239 31.7291 141.029 31.7291Z" fill="white"/>
<path d="M112.603 29.4016C111.138 27.6583 110.406 25.4267 110.406 22.7071C110.406 19.9874 111.138 17.7646 112.603 16.0387C114.085 14.2953 116.168 13.4236 118.853 13.4236C121.538 13.4236 123.612 14.2953 125.077 16.0387C126.559 17.7646 127.299 19.9874 127.299 22.7071C127.299 25.4267 126.559 27.6583 125.077 29.4016C123.612 31.1276 121.538 31.9906 118.853 31.9906C116.168 31.9906 114.085 31.1276 112.603 29.4016ZM113.832 17.0585C112.629 18.523 112.027 20.4058 112.027 22.7071C112.027 25.0083 112.629 26.8999 113.832 28.3818C115.052 29.8462 116.726 30.5784 118.853 30.5784C120.98 30.5784 122.645 29.8462 123.848 28.3818C125.068 26.8999 125.678 25.0083 125.678 22.7071C125.678 20.4058 125.068 18.523 123.848 17.0585C122.645 15.5767 120.98 14.8357 118.853 14.8357C116.726 14.8357 115.052 15.5767 113.832 17.0585Z" fill="white"/>
<path d="M102.011 14.836C100.721 14.836 99.7445 15.1236 99.082 15.6989C98.4369 16.2568 98.1144 16.9803 98.1144 17.8694C98.1144 18.776 98.4544 19.5082 99.1343 20.0661C99.8142 20.624 100.634 21.0598 101.592 21.3736C102.569 21.6874 103.536 22.0274 104.495 22.3935C105.471 22.7422 106.3 23.2914 106.979 24.041C107.659 24.7907 107.999 25.7582 107.999 26.9437C107.999 28.4779 107.459 29.707 106.378 30.631C105.297 31.5375 103.772 31.9908 101.802 31.9908C100.006 31.9908 98.4456 31.6421 97.1207 30.9448C96.0747 30.3695 95.7085 29.829 96.0224 29.3234C96.0572 29.2537 96.1008 29.2014 96.1531 29.1665C96.2054 29.1142 96.2577 29.0881 96.31 29.0881C96.3797 29.0706 96.4408 29.0619 96.4931 29.0619C96.5454 29.0445 96.6064 29.0445 96.6761 29.0619C96.7633 29.0794 96.833 29.1055 96.8853 29.1404C96.9376 29.1578 97.0074 29.1927 97.0945 29.245C97.1817 29.2799 97.2514 29.3147 97.3037 29.3496C97.3735 29.367 97.4519 29.4019 97.5391 29.4542C97.6437 29.5065 97.7221 29.5501 97.7744 29.5849C98.9948 30.2474 100.363 30.5787 101.88 30.5787C103.275 30.5787 104.373 30.291 105.175 29.7157C105.977 29.1229 106.378 28.2774 106.378 27.1791C106.378 26.3771 106.134 25.7059 105.646 25.1655C105.158 24.6076 104.547 24.1979 103.815 23.9364C103.083 23.6575 102.29 23.3524 101.436 23.0211C100.581 22.6899 99.788 22.3586 99.0558 22.0274C98.3236 21.6787 97.7134 21.1557 97.2253 20.4584C96.7371 19.761 96.4931 18.9155 96.4931 17.9218C96.4931 16.6142 96.9638 15.542 97.9052 14.7052C98.8641 13.851 100.25 13.4238 102.063 13.4238C103.754 13.4238 105.219 13.8074 106.456 14.5745C107.276 15.08 107.537 15.5508 107.241 15.9866C107.032 16.3004 106.517 16.2394 105.698 15.8035C105.646 15.7861 105.611 15.7687 105.593 15.7512C104.425 15.1411 103.231 14.836 102.011 14.836Z" fill="white"/>
<path d="M64.1845 23.2688L80.5287 3.65579L87.4509 19.4231L70.7222 39.0361L64.1845 23.2688Z" fill="white"/>
<path opacity="0.89" d="M56.8773 20.5771L73.2215 0.964093L80.1437 16.7314L63.415 36.3444L56.8773 20.5771Z" fill="#22ABE2"/>
</svg>
