<svg width="231" height="40" viewBox="0 0 231 40" fill="none" xmlns="http://www.w3.org/2000/svg">
<path d="M36.5708 29.7494V15.3142C36.5708 14.3205 37.0589 13.719 38.0352 13.5098C39.0638 13.2832 40.3714 13.1698 41.9578 13.1698C46.4732 13.1698 48.7309 14.983 48.7309 18.6092C48.7309 19.847 48.4345 20.893 47.8417 21.7473C47.249 22.6015 46.447 23.203 45.4359 23.5517L48.757 28.5987C49.0708 29.0694 49.2016 29.5489 49.1493 30.037C49.097 30.5077 48.8703 30.8651 48.4694 31.1092C47.5454 31.6322 46.7521 31.3446 46.0896 30.2462L42.3762 24.127C42.1496 24.1618 41.7748 24.1793 41.2518 24.1793C40.6939 24.1793 40.1796 24.1444 39.7089 24.0747V29.7494C39.7089 30.2201 39.5694 30.6036 39.2905 30.9C39.0115 31.1964 38.628 31.3446 38.1398 31.3446C37.6343 31.3446 37.242 31.1964 36.9631 30.9C36.7016 30.6036 36.5708 30.2201 36.5708 29.7494ZM41.4871 21.8257C42.8295 21.8257 43.8233 21.5904 44.4683 21.1196C45.1133 20.6315 45.4359 19.8557 45.4359 18.7922C45.4359 16.9094 44.1894 15.968 41.6963 15.968C41.2431 15.968 40.5806 16.0203 39.7089 16.1249V21.7211C40.2493 21.7908 40.8421 21.8257 41.4871 21.8257Z" fill="#44ABE1"/>
<path d="M31.305 30.1154L29.8405 26.2451H23.1198L21.76 29.9324C21.3241 31.1876 20.6093 31.6147 19.6156 31.2138C18.8485 30.8825 18.6742 30.1677 19.0926 29.0694L24.9765 14.3204C25.3077 13.4662 25.8395 13.0391 26.5717 13.0391C27.269 13.0391 27.7746 13.4139 28.0884 14.1635L34.1554 29.0433C34.3472 29.4268 34.382 29.8452 34.26 30.2985C34.1554 30.7518 33.8852 31.0569 33.4493 31.2138C32.9612 31.3881 32.5253 31.3794 32.1418 31.1876C31.7757 30.9784 31.4967 30.621 31.305 30.1154ZM26.4148 17.197L23.9566 23.787H28.9514L26.4148 17.197Z" fill="#44ABE1"/>
<path d="M3.08578 14.3205L8.42051 22.741L13.6506 14.2943C14.0691 13.6318 14.5834 13.3006 15.1935 13.3006C15.6642 13.3006 16.0216 13.4488 16.2657 13.7451C16.5272 14.0415 16.658 14.4338 16.658 14.9219V29.7493C16.658 30.2201 16.5185 30.6036 16.2396 30.9C15.9781 31.1964 15.5945 31.3445 15.0889 31.3445C14.6008 31.3445 14.2172 31.1964 13.9383 30.9C13.6594 30.6036 13.5199 30.2201 13.5199 29.7493V19.106L9.70189 25.2776C9.31835 25.9052 8.83892 26.219 8.26361 26.219C7.67086 26.219 7.18271 25.9139 6.79917 25.3037L2.92887 19.2368V29.7493C2.92887 30.8128 2.44073 31.3445 1.46444 31.3445C0.488146 31.3445 0 30.8128 0 29.7493V14.9481C0 14.3902 0.130753 13.9805 0.39226 13.719C0.6712 13.4401 1.02859 13.3006 1.46444 13.3006C2.12692 13.3006 2.66737 13.6405 3.08578 14.3205Z" fill="#44ABE1"/>
<path d="M224.106 14.8357C222.816 14.8357 221.84 15.1234 221.178 15.6987C220.532 16.2566 220.21 16.9801 220.21 17.8692C220.21 18.7758 220.55 19.508 221.23 20.0659C221.91 20.6237 222.729 21.0596 223.688 21.3734C224.664 21.6872 225.632 22.0272 226.591 22.3933C227.567 22.7419 228.395 23.2911 229.075 24.0408C229.755 24.7904 230.095 25.758 230.095 26.9435C230.095 28.4776 229.554 29.7067 228.474 30.6307C227.393 31.5373 225.867 31.9906 223.897 31.9906C222.102 31.9906 220.541 31.6419 219.216 30.9445C218.17 30.3692 217.804 29.8288 218.118 29.3232C218.153 29.2535 218.196 29.2011 218.249 29.1663C218.301 29.114 218.353 29.0878 218.406 29.0878C218.475 29.0704 218.536 29.0617 218.589 29.0617C218.641 29.0442 218.702 29.0442 218.772 29.0617C218.859 29.0791 218.929 29.1053 218.981 29.1401C219.033 29.1576 219.103 29.1924 219.19 29.2447C219.277 29.2796 219.347 29.3145 219.399 29.3493C219.469 29.3668 219.547 29.4016 219.635 29.4539C219.739 29.5062 219.818 29.5498 219.87 29.5847C221.09 30.2472 222.459 30.5784 223.976 30.5784C225.37 30.5784 226.469 30.2908 227.271 29.7154C228.073 29.1227 228.474 28.2772 228.474 27.1788C228.474 26.3769 228.229 25.7057 227.741 25.1652C227.253 24.6074 226.643 24.1977 225.911 23.9362C225.179 23.6572 224.385 23.3521 223.531 23.0209C222.677 22.6896 221.884 22.3584 221.151 22.0272C220.419 21.6785 219.809 21.1555 219.321 20.4581C218.833 19.7608 218.589 18.9152 218.589 17.9215C218.589 16.614 219.059 15.5418 220.001 14.705C220.96 13.8507 222.346 13.4236 224.159 13.4236C225.85 13.4236 227.314 13.8071 228.552 14.5742C229.371 15.0798 229.633 15.5505 229.337 15.9863C229.127 16.3002 228.613 16.2391 227.794 15.8033C227.741 15.7859 227.706 15.7684 227.689 15.751C226.521 15.1408 225.327 14.8357 224.106 14.8357Z" fill="#000403"/>
<path d="M213.456 28.8786V14.5219C213.456 13.964 213.7 13.6851 214.189 13.6851C214.677 13.6851 214.921 13.964 214.921 14.5219V30.8922C214.921 31.1363 214.851 31.3368 214.712 31.4937C214.572 31.6506 214.389 31.7291 214.162 31.7291C213.883 31.7291 213.622 31.5896 213.378 31.3106L202.395 16.5617V30.8922C202.395 31.4501 202.151 31.7291 201.662 31.7291C201.174 31.7291 200.93 31.4501 200.93 30.8922V14.5742C200.93 14.3302 200.991 14.121 201.113 13.9466C201.253 13.7723 201.453 13.6851 201.715 13.6851C202.046 13.6851 202.334 13.8507 202.578 14.182L213.456 28.8786Z" fill="#000403"/>
<path d="M182.78 29.4016C181.315 27.6583 180.583 25.4267 180.583 22.7071C180.583 19.9874 181.315 17.7646 182.78 16.0387C184.262 14.2953 186.345 13.4236 189.03 13.4236C191.714 13.4236 193.789 14.2953 195.254 16.0387C196.735 17.7646 197.476 19.9874 197.476 22.7071C197.476 25.4267 196.735 27.6583 195.254 29.4016C193.789 31.1276 191.714 31.9906 189.03 31.9906C186.345 31.9906 184.262 31.1276 182.78 29.4016ZM184.009 17.0585C182.806 18.523 182.204 20.4058 182.204 22.7071C182.204 25.0083 182.806 26.8999 184.009 28.3818C185.229 29.8462 186.903 30.5784 189.03 30.5784C191.157 30.5784 192.822 29.8462 194.024 28.3818C195.245 26.8999 195.855 25.0083 195.855 22.7071C195.855 20.4058 195.245 18.523 194.024 17.0585C192.822 15.5767 191.157 14.8357 189.03 14.8357C186.903 14.8357 185.229 15.5767 184.009 17.0585Z" fill="#000403"/>
<path d="M175.571 30.8922V14.5219C175.571 14.2779 175.641 14.0774 175.78 13.9205C175.92 13.7636 176.112 13.6851 176.356 13.6851C176.6 13.6851 176.792 13.7636 176.931 13.9205C177.071 14.0774 177.14 14.2779 177.14 14.5219V30.8922C177.14 31.1363 177.071 31.3368 176.931 31.4937C176.792 31.6506 176.6 31.7291 176.356 31.7291C176.112 31.7291 175.92 31.6506 175.78 31.4937C175.641 31.3368 175.571 31.1363 175.571 30.8922Z" fill="#000403"/>
<path d="M172.461 15.0972H166.577V30.8922C166.577 31.1363 166.508 31.3368 166.368 31.4937C166.229 31.6506 166.037 31.7291 165.793 31.7291C165.549 31.7291 165.357 31.6506 165.218 31.4937C165.078 31.3368 165.008 31.1363 165.008 30.8922V15.0972H159.125C158.915 15.0972 158.741 15.0362 158.602 14.9142C158.479 14.7747 158.418 14.6004 158.418 14.3912C158.418 14.1994 158.479 14.0338 158.602 13.8943C158.741 13.7548 158.915 13.6851 159.125 13.6851H172.461C172.671 13.6851 172.836 13.7548 172.958 13.8943C173.098 14.0338 173.167 14.1994 173.167 14.3912C173.167 14.6004 173.098 14.7747 172.958 14.9142C172.836 15.0362 172.671 15.0972 172.461 15.0972Z" fill="#000403"/>
<path d="M149.372 30.5784C152.754 30.5784 154.445 28.53 154.445 24.433V14.5219C154.445 14.2779 154.515 14.0774 154.654 13.9205C154.794 13.7636 154.986 13.6851 155.23 13.6851C155.474 13.6851 155.666 13.7636 155.805 13.9205C155.945 14.0774 156.014 14.2779 156.014 14.5219V24.5115C156.014 25.5575 155.901 26.5164 155.674 27.3881C155.448 28.2423 155.082 29.0268 154.576 29.7416C154.088 30.4564 153.391 31.0143 152.484 31.4153C151.595 31.7988 150.54 31.9906 149.32 31.9906C146.966 31.9906 145.275 31.3019 144.247 29.9247C143.218 28.5474 142.704 26.743 142.704 24.5115V14.5219C142.704 14.2779 142.773 14.0774 142.913 13.9205C143.052 13.7636 143.244 13.6851 143.488 13.6851C143.732 13.6851 143.924 13.7636 144.063 13.9205C144.203 14.0774 144.273 14.2779 144.273 14.5219V24.433C144.273 28.53 145.972 30.5784 149.372 30.5784Z" fill="#000403"/>
<path d="M141.029 31.7291H131.51C131.005 31.7291 130.752 31.4501 130.752 30.8922V14.5219C130.752 14.2779 130.822 14.0774 130.961 13.9205C131.101 13.7636 131.292 13.6851 131.536 13.6851C131.781 13.6851 131.972 13.7636 132.112 13.9205C132.251 14.0774 132.321 14.2779 132.321 14.5219V30.3169H141.029C141.238 30.3169 141.404 30.3867 141.526 30.5261C141.665 30.6656 141.735 30.8312 141.735 31.023C141.735 31.2322 141.665 31.4065 141.526 31.546C141.404 31.668 141.238 31.7291 141.029 31.7291Z" fill="#000403"/>
<path d="M112.602 29.4016C111.138 27.6583 110.406 25.4267 110.406 22.7071C110.406 19.9874 111.138 17.7646 112.602 16.0387C114.084 14.2953 116.168 13.4236 118.852 13.4236C121.537 13.4236 123.612 14.2953 125.076 16.0387C126.558 17.7646 127.299 19.9874 127.299 22.7071C127.299 25.4267 126.558 27.6583 125.076 29.4016C123.612 31.1276 121.537 31.9906 118.852 31.9906C116.168 31.9906 114.084 31.1276 112.602 29.4016ZM113.831 17.0585C112.629 18.523 112.027 20.4058 112.027 22.7071C112.027 25.0083 112.629 26.8999 113.831 28.3818C115.052 29.8462 116.726 30.5784 118.852 30.5784C120.979 30.5784 122.644 29.8462 123.847 28.3818C125.068 26.8999 125.678 25.0083 125.678 22.7071C125.678 20.4058 125.068 18.523 123.847 17.0585C122.644 15.5767 120.979 14.8357 118.852 14.8357C116.726 14.8357 115.052 15.5767 113.831 17.0585Z" fill="#000403"/>
<path d="M102.011 14.836C100.721 14.836 99.7443 15.1236 99.0818 15.6989C98.4368 16.2568 98.1143 16.9803 98.1143 17.8695C98.1143 18.776 98.4542 19.5082 99.1341 20.0661C99.814 20.624 100.633 21.0598 101.592 21.3736C102.569 21.6874 103.536 22.0274 104.495 22.3935C105.471 22.7422 106.299 23.2914 106.979 24.041C107.659 24.7907 107.999 25.7582 107.999 26.9437C107.999 28.4779 107.459 29.707 106.378 30.631C105.297 31.5375 103.772 31.9908 101.801 31.9908C100.006 31.9908 98.4455 31.6421 97.1205 30.9448C96.0745 30.3695 95.7084 29.829 96.0222 29.3234C96.0571 29.2537 96.1007 29.2014 96.153 29.1665C96.2053 29.1142 96.2576 29.0881 96.3099 29.0881C96.3796 29.0706 96.4406 29.0619 96.4929 29.0619C96.5452 29.0445 96.6062 29.0445 96.676 29.0619C96.7631 29.0794 96.8329 29.1055 96.8852 29.1404C96.9375 29.1578 97.0072 29.1927 97.0944 29.245C97.1815 29.2799 97.2513 29.3147 97.3036 29.3496C97.3733 29.367 97.4518 29.4019 97.5389 29.4542C97.6435 29.5065 97.722 29.5501 97.7743 29.5849C98.9947 30.2474 100.363 30.5787 101.88 30.5787C103.275 30.5787 104.373 30.291 105.175 29.7157C105.977 29.123 106.378 28.2774 106.378 27.1791C106.378 26.3771 106.134 25.7059 105.646 25.1655C105.157 24.6076 104.547 24.1979 103.815 23.9364C103.083 23.6575 102.29 23.3524 101.435 23.0211C100.581 22.6899 99.7879 22.3586 99.0557 22.0274C98.3235 21.6787 97.7133 21.1557 97.2251 20.4584C96.737 19.761 96.4929 18.9155 96.4929 17.9218C96.4929 16.6142 96.9636 15.542 97.905 14.7052C98.8639 13.851 100.25 13.4238 102.063 13.4238C103.754 13.4238 105.219 13.8074 106.456 14.5745C107.276 15.08 107.537 15.5508 107.241 15.9866C107.032 16.3004 106.517 16.2394 105.698 15.8035C105.646 15.7861 105.611 15.7687 105.593 15.7512C104.425 15.1411 103.231 14.836 102.011 14.836Z" fill="#000403"/>
<path d="M64.1846 23.2688L80.5287 3.65579L87.451 19.4231L70.7222 39.0361L64.1846 23.2688Z" fill="#000403"/>
<path opacity="0.89" d="M56.8774 20.5771L73.2216 0.964093L80.1438 16.7314L63.4151 36.3444L56.8774 20.5771Z" fill="#44ABE1"/>
</svg>
